<svg width="219" height="199" viewBox="0 0 219 199" fill="none" xmlns="http://www.w3.org/2000/svg">
<rect x="33.127" y="9.08398" width="21.7509" height="189.232" fill="#5658DD"/>
<rect y="0.0703125" width="81.0703" height="18.418" fill="#5658DD"/>
<rect x="88.5254" y="0.164062" width="89.389" height="18.418" fill="#5658DD"/>
<rect x="111.498" y="35.8809" width="51.0155" height="18.418" fill="#5658DD"/>
<rect x="115.477" y="143.941" width="51.0155" height="18.418" fill="#5658DD"/>
<path d="M138.793 106.451H218.999L208.772 124.869H138.793V106.451Z" fill="#5658DD"/>
<rect width="52.0592" height="17.448" transform="matrix(0.437693 0.899125 -0.872556 0.488514 177.744 0.566406)" fill="#5658DD"/>
<path d="M167.889 190.02L202.271 108.922L218.552 108.922L183.704 197.2L167.889 190.02Z" fill="#5658DD"/>
<rect x="92.8477" y="178.939" width="89.389" height="18.418" fill="#5658DD"/>
<rect width="105.07" height="17.3815" transform="matrix(0.379201 0.925314 -0.904564 0.426338 69.2285 93.6758)" fill="#5658DD"/>
<rect width="68.2847" height="17.3815" transform="matrix(0.379201 0.925314 -0.904564 0.426338 105.848 92.2344)" fill="#5658DD"/>
<rect width="105.823" height="17.3388" transform="matrix(0.336939 -0.941526 0.924738 0.380603 53.5039 99.6348)" fill="#5658DD"/>
<rect width="68.437" height="17.3388" transform="matrix(0.336939 -0.941526 0.924738 0.380603 89.1484 99.6289)" fill="#5658DD"/>
</svg>
