<svg width="219" height="254" viewBox="0 0 219 254" fill="none" xmlns="http://www.w3.org/2000/svg">
<rect x="33.127" y="9.08398" width="21.7509" height="189.232" fill="#5658DD"/>
<rect y="0.0703125" width="81.0703" height="18.418" fill="#5658DD"/>
<rect x="88.5254" y="0.164062" width="89.389" height="18.418" fill="#5658DD"/>
<rect x="111.498" y="35.8809" width="51.0155" height="18.418" fill="#5658DD"/>
<rect x="115.477" y="143.941" width="51.0155" height="18.418" fill="#5658DD"/>
<path d="M138.793 106.451H218.999L208.772 124.869H138.793V106.451Z" fill="#5658DD"/>
<rect width="52.0592" height="17.448" transform="matrix(0.437693 0.899125 -0.872556 0.488514 177.744 0.566406)" fill="#5658DD"/>
<path d="M167.889 190.02L202.271 108.922L218.552 108.922L183.704 197.2L167.889 190.02Z" fill="#5658DD"/>
<rect x="92.8477" y="178.939" width="89.389" height="18.418" fill="#5658DD"/>
<rect width="105.07" height="17.3815" transform="matrix(0.379201 0.925314 -0.904564 0.426338 69.2285 93.6758)" fill="#5658DD"/>
<rect width="68.2847" height="17.3815" transform="matrix(0.379201 0.925314 -0.904564 0.426338 105.848 92.2344)" fill="#5658DD"/>
<rect width="105.823" height="17.3388" transform="matrix(0.336939 -0.941526 0.924738 0.380603 53.5039 99.6348)" fill="#5658DD"/>
<rect width="68.437" height="17.3388" transform="matrix(0.336939 -0.941526 0.924738 0.380603 89.1484 99.6289)" fill="#5658DD"/>
<path d="M18.1885 224.873H28.2227V226.587H24.4873C24.4092 228.022 24.3604 229.458 24.3408 230.894C24.3213 232.329 24.3115 233.672 24.3115 234.922C24.3115 235.674 24.3164 236.465 24.3262 237.295C24.3359 238.125 24.3506 238.975 24.3701 239.844C24.3896 240.703 24.4141 241.572 24.4434 242.451C24.4727 243.32 24.5117 244.17 24.5605 245H21.8213C21.8799 244.17 21.9238 243.32 21.9531 242.451C21.9922 241.572 22.0215 240.703 22.041 239.844C22.0605 238.975 22.0752 238.125 22.085 237.295C22.0947 236.465 22.0996 235.674 22.0996 234.922C22.0996 233.672 22.085 232.329 22.0557 230.894C22.0361 229.458 21.9922 228.022 21.9238 226.587H18.1885V224.873ZM40.9375 224.873C40.8887 225.703 40.8447 226.553 40.8057 227.422C40.7764 228.291 40.752 229.155 40.7324 230.015C40.7129 230.874 40.6982 231.719 40.6885 232.549C40.6787 233.379 40.6738 234.17 40.6738 234.922C40.6738 235.674 40.6787 236.465 40.6885 237.295C40.6982 238.125 40.708 238.975 40.7178 239.844C40.7373 240.703 40.7617 241.572 40.791 242.451C40.8203 243.32 40.8594 244.17 40.9082 245H38.1836C38.2324 244.17 38.2715 243.32 38.3008 242.451C38.3398 241.572 38.3691 240.703 38.3887 239.844C38.4082 238.975 38.4229 238.125 38.4326 237.295C38.4424 236.465 38.4473 235.674 38.4473 234.922H32.4121C32.4121 235.674 32.417 236.465 32.4268 237.295C32.4365 238.125 32.4512 238.975 32.4707 239.844C32.4902 240.703 32.5146 241.572 32.5439 242.451C32.5732 243.32 32.6123 244.17 32.6611 245H29.9219C29.9805 244.17 30.0244 243.32 30.0537 242.451C30.0928 241.572 30.1221 240.703 30.1416 239.844C30.1611 238.975 30.1758 238.125 30.1855 237.295C30.1953 236.465 30.2002 235.674 30.2002 234.922C30.2002 234.17 30.1953 233.379 30.1855 232.549C30.1758 231.719 30.1611 230.874 30.1416 230.015C30.1221 229.155 30.0928 228.291 30.0537 227.422C30.0244 226.553 29.9805 225.703 29.9219 224.873H32.6904C32.5928 226.24 32.5244 227.642 32.4854 229.077C32.4561 230.503 32.4316 231.88 32.4121 233.208H38.4326C38.4229 231.88 38.3984 230.503 38.3594 229.077C38.3203 227.642 38.2617 226.24 38.1836 224.873H40.9375ZM52.3926 224.873V226.587H46.5625C46.5039 227.71 46.46 228.833 46.4307 229.956C46.4111 231.069 46.3965 232.153 46.3867 233.208H51.9678V234.922H46.3867C46.3867 236.182 46.3965 237.534 46.416 238.979C46.4355 240.415 46.4795 241.851 46.5479 243.286H52.4805V245H43.8965C43.9551 244.17 43.999 243.32 44.0283 242.451C44.0674 241.572 44.0967 240.703 44.1162 239.844C44.1357 238.975 44.1504 238.125 44.1602 237.295C44.1699 236.465 44.1748 235.674 44.1748 234.922C44.1748 234.17 44.1699 233.379 44.1602 232.549C44.1504 231.719 44.1357 230.874 44.1162 230.015C44.0967 229.155 44.0674 228.291 44.0283 227.422C43.999 226.553 43.9551 225.703 43.8965 224.873H52.3926ZM63.0273 234.951C63.0273 236.357 63.1396 237.603 63.3643 238.687C63.5889 239.761 63.9062 240.664 64.3164 241.396C64.7363 242.129 65.2344 242.686 65.8105 243.066C66.3965 243.438 67.0459 243.623 67.7588 243.623C68.1885 243.623 68.5693 243.569 68.9014 243.462C69.2334 243.354 69.5312 243.223 69.7949 243.066C70.0684 242.9 70.3223 242.72 70.5566 242.524C70.791 242.319 71.0205 242.124 71.2451 241.938V244.883C70.6982 245.02 70.1465 245.127 69.5898 245.205C69.043 245.293 68.4326 245.337 67.7588 245.337C66.7139 245.337 65.7471 245.127 64.8584 244.707C63.9697 244.287 63.1982 243.652 62.5439 242.803C61.8994 241.943 61.3916 240.864 61.0205 239.565C60.6592 238.257 60.4785 236.719 60.4785 234.951C60.4785 233.184 60.6689 231.65 61.0498 230.352C61.4404 229.043 61.9629 227.964 62.6172 227.114C63.2812 226.255 64.0527 225.615 64.9316 225.195C65.8203 224.775 66.7627 224.565 67.7588 224.565C68.4326 224.565 69.043 224.609 69.5898 224.697C70.1465 224.775 70.6982 224.883 71.2451 225.02V227.964C71.0205 227.778 70.791 227.588 70.5566 227.393C70.3223 227.188 70.0684 227.007 69.7949 226.851C69.5312 226.685 69.2334 226.548 68.9014 226.44C68.5693 226.333 68.1885 226.279 67.7588 226.279C67.0459 226.279 66.3965 226.47 65.8105 226.851C65.2344 227.222 64.7363 227.773 64.3164 228.506C63.9062 229.238 63.5889 230.146 63.3643 231.23C63.1396 232.305 63.0273 233.545 63.0273 234.951ZM85.6445 234.951C85.6445 236.758 85.4834 238.32 85.1611 239.639C84.8389 240.947 84.3896 242.031 83.8135 242.891C83.2471 243.74 82.5781 244.37 81.8066 244.78C81.0352 245.19 80.2051 245.396 79.3164 245.396C78.418 245.396 77.583 245.19 76.8115 244.78C76.04 244.37 75.3662 243.74 74.79 242.891C74.2236 242.031 73.7744 240.947 73.4424 239.639C73.1201 238.32 72.959 236.758 72.959 234.951C72.959 233.154 73.1201 231.602 73.4424 230.293C73.7744 228.975 74.2236 227.886 74.79 227.026C75.3662 226.167 76.04 225.532 76.8115 225.122C77.583 224.712 78.418 224.507 79.3164 224.507C80.2051 224.507 81.0352 224.712 81.8066 225.122C82.5781 225.532 83.2471 226.167 83.8135 227.026C84.3896 227.886 84.8389 228.975 85.1611 230.293C85.4834 231.602 85.6445 233.154 85.6445 234.951ZM83.125 234.951C83.125 233.447 83.0273 232.148 82.832 231.055C82.6367 229.961 82.3682 229.062 82.0264 228.359C81.6846 227.646 81.2793 227.124 80.8105 226.792C80.3516 226.45 79.8535 226.279 79.3164 226.279C78.7695 226.279 78.2617 226.45 77.793 226.792C77.334 227.124 76.9287 227.646 76.5771 228.359C76.2354 229.062 75.9668 229.961 75.7715 231.055C75.5762 232.148 75.4785 233.447 75.4785 234.951C75.4785 236.465 75.5762 237.769 75.7715 238.862C75.9668 239.956 76.2354 240.854 76.5771 241.558C76.9287 242.261 77.334 242.783 77.793 243.125C78.2617 243.457 78.7695 243.623 79.3164 243.623C79.8535 243.623 80.3516 243.457 80.8105 243.125C81.2793 242.783 81.6846 242.261 82.0264 241.558C82.3682 240.854 82.6367 239.956 82.832 238.862C83.0273 237.769 83.125 236.465 83.125 234.951ZM90.9619 224.873C90.9033 225.703 90.8545 226.553 90.8154 227.422C90.7861 228.291 90.7617 229.155 90.7422 230.015C90.7227 230.874 90.708 231.719 90.6982 232.549C90.6885 233.379 90.6836 234.17 90.6836 234.922C90.6836 235.674 90.6885 236.465 90.6982 237.295C90.708 238.125 90.7227 238.975 90.7422 239.844C90.7617 240.703 90.7861 241.572 90.8154 242.451C90.8447 243.32 90.8838 244.17 90.9326 245H88.1934C88.252 244.17 88.2959 243.32 88.3252 242.451C88.3643 241.572 88.3936 240.703 88.4131 239.844C88.4326 238.975 88.4473 238.125 88.457 237.295C88.4668 236.465 88.4717 235.674 88.4717 234.922C88.4717 234.17 88.4668 233.379 88.457 232.549C88.4473 231.719 88.4326 230.874 88.4131 230.015C88.3936 229.155 88.3643 228.291 88.3252 227.422C88.2959 226.553 88.252 225.703 88.1934 224.873H90.9619ZM104.995 224.873C104.937 225.703 104.888 226.553 104.849 227.422C104.819 228.291 104.795 229.155 104.775 230.015C104.756 230.874 104.741 231.719 104.731 232.549C104.722 233.379 104.717 234.17 104.717 234.922C104.717 235.674 104.722 236.465 104.731 237.295C104.741 238.125 104.756 238.975 104.775 239.844C104.795 240.703 104.819 241.572 104.849 242.451C104.878 243.32 104.917 244.17 104.966 245H102.256C101.758 243.564 101.27 242.197 100.791 240.898C100.312 239.6 99.834 238.345 99.3555 237.134C98.8867 235.913 98.418 234.727 97.9492 233.574C97.4805 232.412 97.0117 231.26 96.543 230.117H96.4404C96.4209 230.967 96.4111 231.797 96.4111 232.607C96.4209 233.408 96.4258 234.18 96.4258 234.922C96.4258 235.674 96.4307 236.465 96.4404 237.295C96.4502 238.125 96.4648 238.975 96.4844 239.844C96.5039 240.703 96.5283 241.572 96.5576 242.451C96.5869 243.32 96.626 244.17 96.6748 245H93.9941C94.0527 244.17 94.0967 243.32 94.126 242.451C94.165 241.572 94.1943 240.703 94.2139 239.844C94.2334 238.975 94.248 238.125 94.2578 237.295C94.2676 236.465 94.2725 235.674 94.2725 234.922C94.2725 234.17 94.2676 233.379 94.2578 232.549C94.248 231.719 94.2334 230.874 94.2139 230.015C94.1943 229.155 94.165 228.291 94.126 227.422C94.0967 226.553 94.0527 225.703 93.9941 224.873H96.7334C97.7197 227.744 98.6865 230.454 99.6338 233.003C100.581 235.552 101.528 237.969 102.476 240.254H102.578C102.588 239.824 102.593 239.375 102.593 238.906C102.593 238.438 102.588 237.974 102.578 237.515C102.578 237.046 102.573 236.592 102.563 236.152C102.563 235.713 102.563 235.303 102.563 234.922C102.563 234.17 102.559 233.379 102.549 232.549C102.539 231.719 102.524 230.874 102.505 230.015C102.485 229.155 102.456 228.291 102.417 227.422C102.388 226.553 102.344 225.703 102.285 224.873H104.995ZM119.57 235.098H124.902C124.863 235.898 124.834 236.685 124.814 237.456C124.805 238.228 124.8 238.965 124.8 239.668C124.8 240.371 124.8 241.016 124.8 241.602C124.81 242.178 124.824 242.676 124.844 243.096C124.863 243.594 124.883 244.038 124.902 244.429C124.404 244.683 123.799 244.897 123.086 245.073C122.373 245.249 121.509 245.337 120.493 245.337C119.478 245.337 118.535 245.127 117.666 244.707C116.797 244.287 116.04 243.652 115.396 242.803C114.751 241.943 114.243 240.864 113.872 239.565C113.511 238.257 113.33 236.719 113.33 234.951C113.33 233.184 113.521 231.65 113.901 230.352C114.292 229.043 114.819 227.964 115.483 227.114C116.147 226.255 116.919 225.615 117.798 225.195C118.687 224.775 119.629 224.565 120.625 224.565C121.035 224.565 121.406 224.585 121.738 224.624C122.07 224.653 122.378 224.697 122.661 224.756C122.954 224.814 123.228 224.888 123.481 224.976C123.735 225.063 123.984 225.156 124.229 225.254V228.213C123.594 227.5 122.993 227.002 122.427 226.719C121.87 226.426 121.265 226.279 120.61 226.279C119.858 226.279 119.189 226.489 118.604 226.909C118.018 227.319 117.52 227.905 117.109 228.667C116.709 229.429 116.401 230.342 116.187 231.406C115.981 232.461 115.879 233.633 115.879 234.922C115.879 236.172 115.977 237.329 116.172 238.394C116.367 239.448 116.66 240.366 117.051 241.147C117.441 241.919 117.93 242.524 118.516 242.964C119.111 243.403 119.805 243.623 120.596 243.623C120.938 243.623 121.235 243.599 121.489 243.55C121.753 243.491 122.012 243.394 122.266 243.257C122.275 243.042 122.285 242.793 122.295 242.51C122.305 242.266 122.314 241.973 122.324 241.631C122.334 241.279 122.339 240.874 122.339 240.415C122.339 239.917 122.329 239.365 122.31 238.76C122.3 238.154 122.275 237.5 122.236 236.797H119.57V235.098ZM132.432 224.873C134.082 224.873 135.356 225.356 136.255 226.323C137.163 227.29 137.617 228.755 137.617 230.718C137.617 231.987 137.397 233.037 136.958 233.867C136.519 234.688 135.869 235.317 135.01 235.757C135.225 236.597 135.493 237.51 135.815 238.496C136.099 239.346 136.45 240.327 136.87 241.44C137.3 242.554 137.822 243.74 138.438 245H135.347C134.907 243.545 134.541 242.28 134.248 241.206C133.965 240.122 133.74 239.214 133.574 238.481C133.379 237.632 133.228 236.904 133.12 236.299H130.146C130.146 236.982 130.151 237.69 130.161 238.423C130.181 239.146 130.2 239.878 130.22 240.62C130.239 241.353 130.264 242.09 130.293 242.832C130.322 243.574 130.356 244.297 130.396 245H127.656C127.715 244.17 127.759 243.32 127.788 242.451C127.827 241.572 127.856 240.703 127.876 239.844C127.896 238.975 127.91 238.125 127.92 237.295C127.93 236.465 127.935 235.674 127.935 234.922C127.935 234.17 127.93 233.379 127.92 232.549C127.91 231.719 127.896 230.874 127.876 230.015C127.856 229.155 127.827 228.291 127.788 227.422C127.759 226.553 127.715 225.703 127.656 224.873H132.432ZM130.322 226.514C130.254 227.91 130.205 229.312 130.176 230.718C130.156 232.114 130.146 233.433 130.146 234.673H132.285C132.725 234.673 133.115 234.604 133.457 234.468C133.799 234.331 134.087 234.106 134.321 233.794C134.565 233.481 134.751 233.076 134.878 232.578C135.005 232.07 135.068 231.45 135.068 230.718C135.068 229.233 134.834 228.164 134.365 227.51C133.906 226.846 133.213 226.514 132.285 226.514H130.322ZM152.266 234.951C152.266 236.758 152.104 238.32 151.782 239.639C151.46 240.947 151.011 242.031 150.435 242.891C149.868 243.74 149.199 244.37 148.428 244.78C147.656 245.19 146.826 245.396 145.938 245.396C145.039 245.396 144.204 245.19 143.433 244.78C142.661 244.37 141.987 243.74 141.411 242.891C140.845 242.031 140.396 240.947 140.063 239.639C139.741 238.32 139.58 236.758 139.58 234.951C139.58 233.154 139.741 231.602 140.063 230.293C140.396 228.975 140.845 227.886 141.411 227.026C141.987 226.167 142.661 225.532 143.433 225.122C144.204 224.712 145.039 224.507 145.938 224.507C146.826 224.507 147.656 224.712 148.428 225.122C149.199 225.532 149.868 226.167 150.435 227.026C151.011 227.886 151.46 228.975 151.782 230.293C152.104 231.602 152.266 233.154 152.266 234.951ZM149.746 234.951C149.746 233.447 149.648 232.148 149.453 231.055C149.258 229.961 148.989 229.062 148.647 228.359C148.306 227.646 147.9 227.124 147.432 226.792C146.973 226.45 146.475 226.279 145.938 226.279C145.391 226.279 144.883 226.45 144.414 226.792C143.955 227.124 143.55 227.646 143.198 228.359C142.856 229.062 142.588 229.961 142.393 231.055C142.197 232.148 142.1 233.447 142.1 234.951C142.1 236.465 142.197 237.769 142.393 238.862C142.588 239.956 142.856 240.854 143.198 241.558C143.55 242.261 143.955 242.783 144.414 243.125C144.883 243.457 145.391 243.623 145.938 243.623C146.475 243.623 146.973 243.457 147.432 243.125C147.9 242.783 148.306 242.261 148.647 241.558C148.989 240.854 149.258 239.956 149.453 238.862C149.648 237.769 149.746 236.465 149.746 234.951ZM162.651 228.55C162.534 229.409 162.407 230.347 162.271 231.362C162.144 232.368 162.012 233.398 161.875 234.453C161.738 235.498 161.602 236.543 161.465 237.588C161.328 238.623 161.201 239.609 161.084 240.547C160.967 241.475 160.859 242.324 160.762 243.096C160.674 243.857 160.605 244.492 160.557 245H157.085C156.978 244.268 156.851 243.428 156.704 242.48C156.567 241.533 156.411 240.513 156.235 239.419C156.069 238.315 155.884 237.163 155.679 235.962C155.474 234.751 155.254 233.525 155.02 232.285C154.795 231.035 154.556 229.785 154.302 228.535C154.048 227.285 153.789 226.064 153.525 224.873H156.353C156.724 227.803 157.1 230.688 157.48 233.53C157.871 236.362 158.296 239.199 158.755 242.041H158.96C159.185 240.625 159.395 239.209 159.59 237.793C159.795 236.377 159.985 234.956 160.161 233.53C160.347 232.095 160.527 230.659 160.703 229.224C160.879 227.778 161.06 226.328 161.245 224.873H164.263C164.624 227.793 164.976 230.679 165.317 233.53C165.669 236.382 166.074 239.219 166.533 242.041H166.738C167.197 239.199 167.622 236.362 168.013 233.53C168.403 230.688 168.784 227.803 169.155 224.873H171.982C171.719 226.064 171.46 227.285 171.206 228.535C170.952 229.785 170.708 231.035 170.474 232.285C170.249 233.525 170.034 234.751 169.829 235.962C169.624 237.163 169.434 238.315 169.258 239.419C169.092 240.513 168.936 241.533 168.789 242.48C168.643 243.428 168.521 244.268 168.423 245H164.951C164.902 244.492 164.829 243.857 164.731 243.096C164.644 242.324 164.541 241.475 164.424 240.547C164.307 239.609 164.18 238.623 164.043 237.588C163.906 236.543 163.77 235.498 163.633 234.453C163.496 233.398 163.359 232.368 163.223 231.362C163.086 230.347 162.964 229.409 162.856 228.55H162.651ZM172.466 224.873H182.5V226.587H178.765C178.687 228.022 178.638 229.458 178.618 230.894C178.599 232.329 178.589 233.672 178.589 234.922C178.589 235.674 178.594 236.465 178.604 237.295C178.613 238.125 178.628 238.975 178.647 239.844C178.667 240.703 178.691 241.572 178.721 242.451C178.75 243.32 178.789 244.17 178.838 245H176.099C176.157 244.17 176.201 243.32 176.23 242.451C176.27 241.572 176.299 240.703 176.318 239.844C176.338 238.975 176.353 238.125 176.362 237.295C176.372 236.465 176.377 235.674 176.377 234.922C176.377 233.672 176.362 232.329 176.333 230.894C176.313 229.458 176.27 228.022 176.201 226.587H172.466V224.873ZM195.215 224.873C195.166 225.703 195.122 226.553 195.083 227.422C195.054 228.291 195.029 229.155 195.01 230.015C194.99 230.874 194.976 231.719 194.966 232.549C194.956 233.379 194.951 234.17 194.951 234.922C194.951 235.674 194.956 236.465 194.966 237.295C194.976 238.125 194.985 238.975 194.995 239.844C195.015 240.703 195.039 241.572 195.068 242.451C195.098 243.32 195.137 244.17 195.186 245H192.461C192.51 244.17 192.549 243.32 192.578 242.451C192.617 241.572 192.646 240.703 192.666 239.844C192.686 238.975 192.7 238.125 192.71 237.295C192.72 236.465 192.725 235.674 192.725 234.922H186.689C186.689 235.674 186.694 236.465 186.704 237.295C186.714 238.125 186.729 238.975 186.748 239.844C186.768 240.703 186.792 241.572 186.821 242.451C186.851 243.32 186.89 244.17 186.938 245H184.199C184.258 244.17 184.302 243.32 184.331 242.451C184.37 241.572 184.399 240.703 184.419 239.844C184.438 238.975 184.453 238.125 184.463 237.295C184.473 236.465 184.478 235.674 184.478 234.922C184.478 234.17 184.473 233.379 184.463 232.549C184.453 231.719 184.438 230.874 184.419 230.015C184.399 229.155 184.37 228.291 184.331 227.422C184.302 226.553 184.258 225.703 184.199 224.873H186.968C186.87 226.24 186.802 227.642 186.763 229.077C186.733 230.503 186.709 231.88 186.689 233.208H192.71C192.7 231.88 192.676 230.503 192.637 229.077C192.598 227.642 192.539 226.24 192.461 224.873H195.215Z" fill="#5658DD"/>
</svg>
